<?xml version="1.0" encoding="UTF-8"?>
<svg xmlns="http://www.w3.org/2000/svg" xmlns:xlink="http://www.w3.org/1999/xlink" width="375pt" height="374.999991pt" viewBox="0 0 375 374.999991" version="1.2">
<defs>
<clipPath id="clip1">
  <path d="M 78.550781 235 L 296.800781 235 L 296.800781 316.929688 L 78.550781 316.929688 Z M 78.550781 235 "/>
</clipPath>
<clipPath id="clip2">
  <path d="M 119 58.179688 L 257 58.179688 L 257 174 L 119 174 Z M 119 58.179688 "/>
</clipPath>
</defs>
<g id="surface1">
<rect x="0" y="0" width="375" height="374.999991" style="fill:rgb(100%,100%,100%);fill-opacity:1;stroke:none;"/>
<rect x="0" y="0" width="375" height="374.999991" style="fill:rgb(100%,100%,100%);fill-opacity:1;stroke:none;"/>
<rect x="0" y="0" width="375" height="374.999991" style="fill:rgb(100%,100%,100%);fill-opacity:1;stroke:none;"/>
<path style=" stroke:none;fill-rule:nonzero;fill:rgb(27.839661%,53.329468%,78.039551%);fill-opacity:1;" d="M 187.351562 374.699219 C 137.332031 374.699219 90.230469 355.230469 54.886719 319.8125 C 19.46875 284.46875 0 237.371094 0 187.351562 C 0 137.332031 19.46875 90.230469 54.886719 54.886719 C 90.230469 19.46875 137.332031 0 187.351562 0 C 237.371094 0 284.46875 19.46875 319.8125 54.886719 C 355.230469 90.304688 374.699219 137.332031 374.699219 187.351562 C 374.699219 237.371094 355.230469 284.46875 319.8125 319.8125 C 284.46875 355.230469 237.371094 374.699219 187.351562 374.699219 Z M 187.351562 11.230469 C 140.324219 11.230469 96.070312 29.578125 62.824219 62.824219 C 29.578125 96.070312 11.230469 140.324219 11.230469 187.351562 C 11.230469 234.375 29.578125 278.628906 62.824219 311.875 C 96.070312 345.121094 140.324219 363.46875 187.351562 363.46875 C 234.375 363.46875 278.628906 345.121094 311.875 311.875 C 345.121094 278.628906 363.46875 234.375 363.46875 187.351562 C 363.46875 140.324219 345.121094 96.070312 311.875 62.824219 C 278.628906 29.578125 234.375 11.230469 187.351562 11.230469 Z M 187.351562 11.230469 "/>
<path style=" stroke:none;fill-rule:nonzero;fill:rgb(71.369934%,86.268616%,99.609375%);fill-opacity:1;" d="M 82.089844 313.640625 C 83.886719 272.019531 118.382812 238.707031 160.539062 238.707031 L 215.164062 238.707031 C 257.320312 238.707031 291.820312 272.019531 293.609375 313.640625 Z M 82.089844 313.640625 "/>
<g clip-path="url(#clip1)" clip-rule="nonzero">
<path style=" stroke:none;fill-rule:nonzero;fill:rgb(27.839661%,53.329468%,78.039551%);fill-opacity:1;" d="M 215.164062 242.113281 C 254.28125 242.113281 286.503906 272.09375 289.964844 310.234375 L 85.734375 310.234375 C 89.199219 272.09375 121.417969 242.113281 160.539062 242.113281 L 215.164062 242.113281 M 215.164062 235.300781 L 160.539062 235.300781 C 115.289062 235.300781 78.601562 271.902344 78.601562 317.046875 L 297.101562 317.046875 C 297.101562 271.902344 260.414062 235.300781 215.164062 235.300781 Z M 215.164062 235.300781 "/>
</g>
<path style=" stroke:none;fill-rule:nonzero;fill:rgb(100%,100%,100%);fill-opacity:1;" d="M 187.851562 259.144531 C 165.871094 259.144531 158.425781 244.824219 157.125 241.859375 L 157.125 204.644531 L 218.578125 204.644531 L 218.578125 241.867188 C 217.292969 244.796875 209.855469 259.144531 187.851562 259.144531 Z M 187.851562 259.144531 "/>
<path style=" stroke:none;fill-rule:nonzero;fill:rgb(27.839661%,53.329468%,78.039551%);fill-opacity:1;" d="M 215.164062 208.050781 L 215.164062 241.117188 C 213.515625 244.449219 206.546875 255.738281 187.851562 255.738281 C 169.210938 255.738281 162.203125 244.449219 160.539062 241.113281 L 160.539062 208.050781 L 215.164062 208.050781 M 221.992188 201.238281 L 153.710938 201.238281 L 153.710938 242.535156 C 153.710938 242.535156 160.988281 262.550781 187.851562 262.550781 C 214.710938 262.550781 221.992188 242.535156 221.992188 242.535156 Z M 221.992188 201.238281 "/>
<path style=" stroke:none;fill-rule:nonzero;fill:rgb(71.369934%,86.268616%,99.609375%);fill-opacity:1;" d="M 236.625 182.261719 C 227.746094 182.261719 220.535156 175.058594 220.535156 166.210938 C 220.535156 157.363281 227.753906 150.152344 236.625 150.152344 C 250.027344 150.152344 252.71875 153.8125 252.71875 159.71875 C 252.71875 169.34375 244.761719 182.261719 236.625 182.261719 Z M 139.078125 182.261719 C 130.9375 182.261719 122.984375 169.34375 122.984375 159.710938 C 122.984375 153.804688 125.679688 150.148438 139.078125 150.148438 C 147.953125 150.148438 155.164062 157.355469 155.164062 166.203125 C 155.164062 175.054688 147.953125 182.261719 139.078125 182.261719 Z M 139.078125 182.261719 "/>
<path style=" stroke:none;fill-rule:nonzero;fill:rgb(27.839661%,53.329468%,78.039551%);fill-opacity:1;" d="M 236.625 153.554688 C 249.304688 153.554688 249.304688 156.832031 249.304688 159.71875 C 249.304688 168.125 242.195312 178.859375 236.625 178.859375 C 229.632812 178.859375 223.945312 173.1875 223.945312 166.210938 C 223.945312 159.234375 229.632812 153.554688 236.625 153.554688 M 139.078125 153.554688 C 146.070312 153.554688 151.757812 159.226562 151.757812 166.203125 C 151.757812 173.179688 146.070312 178.855469 139.078125 178.855469 C 133.503906 178.855469 126.398438 168.125 126.398438 159.710938 C 126.398438 156.832031 126.398438 153.554688 139.078125 153.554688 M 236.625 146.742188 C 225.847656 146.742188 217.117188 155.453125 217.117188 166.203125 C 217.117188 176.953125 225.847656 185.667969 236.625 185.667969 C 247.398438 185.667969 256.132812 170.460938 256.132812 159.710938 C 256.132812 148.96875 247.398438 146.742188 236.625 146.742188 Z M 139.078125 146.742188 C 128.300781 146.742188 119.570312 148.96875 119.570312 159.71875 C 119.570312 170.46875 128.300781 185.671875 139.078125 185.671875 C 149.851562 185.671875 158.585938 176.960938 158.585938 166.210938 C 158.585938 155.460938 149.851562 146.742188 139.078125 146.742188 Z M 139.078125 146.742188 "/>
<path style=" stroke:none;fill-rule:nonzero;fill:rgb(100%,100%,100%);fill-opacity:1;" d="M 187.851562 231.894531 C 183.726562 231.894531 179.847656 230.410156 176.636719 227.597656 L 176.015625 227.058594 L 175.226562 226.859375 C 152.507812 221.105469 136.640625 200.769531 136.640625 177.394531 L 136.640625 114.050781 C 136.640625 101.609375 146.785156 91.480469 159.253906 91.480469 L 216.4375 91.480469 C 228.90625 91.480469 239.0625 101.601562 239.0625 114.050781 L 239.0625 177.394531 C 239.0625 200.769531 223.191406 221.105469 200.476562 226.859375 L 199.683594 227.058594 L 199.0625 227.597656 C 195.851562 230.410156 191.972656 231.894531 187.851562 231.894531 Z M 187.851562 231.894531 "/>
<path style=" stroke:none;fill-rule:nonzero;fill:rgb(27.839661%,53.329468%,78.039551%);fill-opacity:1;" d="M 216.4375 94.894531 C 227.03125 94.894531 235.648438 103.488281 235.648438 114.054688 L 235.648438 177.394531 C 235.648438 199.203125 220.835938 218.179688 199.628906 223.554688 L 198.039062 223.957031 L 196.800781 225.042969 C 195.007812 226.617188 192 228.488281 187.851562 228.488281 C 183.699219 228.488281 180.695312 226.617188 178.898438 225.042969 L 177.664062 223.957031 L 176.070312 223.554688 C 154.863281 218.179688 140.054688 199.203125 140.054688 177.394531 L 140.054688 114.054688 C 140.054688 103.488281 148.671875 94.894531 159.261719 94.894531 L 216.4375 94.894531 M 216.4375 88.082031 L 159.253906 88.082031 C 144.878906 88.082031 133.226562 99.710938 133.226562 114.054688 L 133.226562 177.394531 C 133.226562 202.855469 150.746094 224.167969 174.390625 230.15625 C 177.996094 233.320312 182.675781 235.300781 187.851562 235.300781 C 193.027344 235.300781 197.703125 233.320312 201.308594 230.15625 C 224.953125 224.167969 242.476562 202.855469 242.476562 177.394531 L 242.476562 114.054688 C 242.476562 99.710938 230.820312 88.082031 216.4375 88.082031 Z M 216.4375 88.082031 "/>
<path style=" stroke:none;fill-rule:nonzero;fill:rgb(71.369934%,86.268616%,99.609375%);fill-opacity:1;" d="M 239.0625 170.585938 L 239.0625 146.742188 C 239.0625 121.976562 218.351562 108.714844 217.464844 108.164062 L 214.746094 106.460938 L 212.875 109.074219 C 212.292969 109.878906 198.40625 128.734375 168.398438 128.734375 C 160.542969 128.734375 136.644531 128.734375 136.644531 153.558594 L 136.644531 170.589844 L 135.421875 170.589844 C 132.445312 163.90625 122.988281 141.082031 122.988281 121.625 C 122.988281 85.714844 147.6875 61.59375 184.441406 61.59375 C 210.65625 61.59375 218.527344 79.203125 218.847656 79.953125 L 219.742188 82.015625 L 221.992188 82.023438 C 233.398438 82.023438 252.71875 89.933594 252.71875 119.59375 C 252.71875 137.449219 243.109375 163.152344 240.167969 170.585938 Z M 239.0625 170.585938 "/>
<g clip-path="url(#clip2)" clip-rule="nonzero">
<path style=" stroke:none;fill-rule:nonzero;fill:rgb(27.839661%,53.329468%,78.039551%);fill-opacity:1;" d="M 184.4375 64.992188 C 208.21875 64.992188 215.421875 80.640625 215.6875 81.242188 L 217.441406 85.429688 L 221.992188 85.429688 C 234.589844 85.429688 249.304688 94.375 249.304688 119.59375 C 249.304688 130.058594 245.839844 143.421875 242.476562 153.949219 L 242.476562 146.742188 C 242.476562 120.113281 220.230469 105.875 219.28125 105.28125 L 213.808594 101.847656 L 210.074219 107.105469 C 209.945312 107.292969 196.820312 125.324219 168.390625 125.324219 C 145.058594 125.328125 133.226562 134.828125 133.226562 153.554688 L 133.226562 155.691406 C 129.871094 146.003906 126.398438 133.179688 126.398438 121.609375 C 126.398438 87.746094 149.722656 64.992188 184.4375 64.992188 M 184.4375 58.179688 C 144.703125 58.179688 119.570312 85.300781 119.570312 121.609375 C 119.570312 145.664062 133.226562 173.992188 133.226562 173.992188 L 140.054688 173.992188 C 140.054688 173.992188 140.054688 160.167969 140.054688 153.554688 C 140.054688 135.378906 153.875 132.140625 168.390625 132.140625 C 200.6875 132.140625 215.652344 111.050781 215.652344 111.050781 C 215.652344 111.050781 235.648438 123.574219 235.648438 146.742188 C 235.648438 154.023438 235.648438 173.992188 235.648438 173.992188 L 242.476562 173.992188 C 242.476562 173.992188 256.132812 141.507812 256.132812 119.59375 C 256.132812 88.824219 236.488281 78.617188 221.992188 78.617188 C 221.992188 78.617188 213.433594 58.179688 184.4375 58.179688 Z M 184.4375 58.179688 "/>
</g>
</g>
</svg>
